<?xml version="1.0" encoding="utf-8"?>
<svg viewBox="388 108 514 514" width="514" height="514" xmlns="http://www.w3.org/2000/svg">
  <g transform="matrix(1, 0, 0, 1, 388.365906, 109)">
    <g transform="matrix(1, 0, 0, 1, -8.873322, -49)">
      <ellipse ry="60" rx="60" id="svg_5" cy="200" cx="150" stroke-width="20.5" stroke="#191919" fill="#ffffff"/>
      <ellipse ry="60" rx="60" id="svg_6" cy="200" cx="362" fill-opacity="0" stroke-width="20.5" stroke="#191919" fill="#ffffff"/>
      <rect id="svg_9" height="25" width="130" y="145" x="188.5" stroke-opacity="0" stroke-width="20.5" stroke="#ffdddd" fill="#191919"/>
      <path id="svg_16" d="M 441.25 440.825 L 391.362 389.601 C 398.082 378.222 402.024 364.91 402.031 350.634 C 402.024 308.992 369.183 275.264 328.647 275.25 C 288.105 275.264 255.25 308.992 255.25 350.626 C 255.25 392.239 288.105 425.967 328.647 425.967 C 342.558 425.967 355.524 421.92 366.606 415.019 L 416.509 466.25 L 441.25 440.825 Z M 283.247 350.626 C 283.289 324.878 303.57 304.061 328.64 304.003 C 353.697 304.061 373.992 324.878 374.034 350.626 C 373.985 376.36 353.697 397.178 328.64 397.235 C 303.57 397.178 283.289 376.36 283.247 350.626 Z" stroke-opacity="0" stroke-width="20.5" stroke="#ffdddd" fill="#191919"/>
    </g>
  </g>
</svg>
